<svg xmlns="http://www.w3.org/2000/svg" width="16" height="16" viewBox="0 0 72 72">
  <path fill="rgba(255, 255, 255, 0.5)" d="M8 0C3.58 0 0 3.58 0 8v56c0 4.42 3.58 8 8 8h56c4.42 0 8-3.58 8-8V8c0-4.42-3.58-8-8-8H8zm8.35 10c3.51 0 6.35 2.86 6.35 6.4 0 3.53-2.84 6.39-6.35 6.39-3.51-.04-6.35-2.86-6.35-6.39 0-3.54 2.84-6.4 6.35-6.4zm33.03 16.27c7.36 0 12.62 4.49 12.62 13.78V62H51.32V43.8c0-4.99-1.9-7.77-5.85-7.77-4.3 0-6.54 2.9-6.54 7.77V62h-10.3V27.33h10.3V32s3.1-5.73 10.45-5.73zm-38.35 1.06h10.74V62H11.03V27.33z"/>
</svg>
